<svg width="84" height="82" viewBox="0 0 84 82" fill="none" xmlns="http://www.w3.org/2000/svg">
<path d="M80.8266 33.5515C80.8266 33.5515 80.6291 33.6534 80.5208 33.8381C80.3934 34.0484 80.3807 34.3605 80.8904 34.7491C81.4383 35.1569 81.9415 35.52 82.2792 35.7557C82.5531 35.9468 82.6679 36.2972 82.5596 36.6158C82.4258 37.0171 82.1837 37.5523 81.7569 37.9982C81.33 38.4442 80.7247 38.7946 79.871 38.8073C79.871 38.9921 79.9411 39.1641 80.0685 39.2978C80.4189 39.6737 81.1134 40.5083 81.0497 41.1963C80.9605 42.0755 80.3488 43.0821 78.6032 43.3687C78.4567 43.3942 78.3294 43.4834 78.2657 43.6172V43.6299C78.2657 43.6299 78.2338 43.6809 78.2275 43.7C77.6414 45.6176 78.3804 47.3823 78.3804 47.3823C80.1068 52.0265 68.0279 50.3001 68.0279 50.3001C54.4901 48.4398 43.3414 73.9227 43.3414 73.9227" stroke="#636569" stroke-width="2" stroke-linecap="round" stroke-linejoin="round"/>
<path d="M73.9908 12.3432C74.029 12.4261 74.061 12.5025 74.0928 12.5853C74.8828 14.5284 76.8705 18.612 76.3481 20.7399C75.9786 22.2433 75.953 23.1289 76.2142 24.5687C76.2269 24.6324 76.2397 24.7024 76.2525 24.7725C76.571 26.3397 79.4506 27.703 81.2344 28.6714C83.0182 29.6397 81.6803 32.1434 80.9031 33.1819C80.6929 33.4622 80.5781 33.6788 80.5208 33.8381C80.3679 34.2649 80.6483 34.3222 80.6483 34.3222" stroke="#636569" stroke-width="2" stroke-linecap="round" stroke-linejoin="round"/>
<path d="M49.8968 2.39896C49.8968 2.39896 49.8713 2.39896 49.8649 2.39896C49.8649 2.39896 49.8841 2.40533 49.916 2.42444C50.0051 2.46904 50.2026 2.57097 50.502 2.7366C50.5593 2.76846 50.6167 2.80031 50.6804 2.83854C54.4328 5.01095 69.4868 15.2933 57.8347 34.4756C51.808 44.4011 42.2901 44.2419 40.0539 56.4609C38.1427 66.8962 42.5641 71.7698 43.3541 73.9294" stroke="#636569" stroke-width="2" stroke-linecap="round" stroke-linejoin="round"/>
<path d="M66.3778 25.4735C68.8688 3.77478 49.8649 2.40508 49.8649 2.40508C50.33 2.31589 64.8171 0.239032 70.6208 4.86418C75.5645 8.80128 75.832 16.2933 66.3778 25.4735Z" stroke="#636569" stroke-width="2" stroke-linecap="round" stroke-linejoin="round"/>
<path d="M40.2324 74.9485C37.391 71.6421 31.2624 57.6201 42.2837 45.6113C46.7114 40.7886 51.4703 38.3678 54.5729 33.5451C59.4783 25.9194 63.4155 13.076 46.5331 2.8255C51.2411 18.2172 43.3795 26.5756 33.8744 37.3293C24.3056 48.1532 28.8288 67.1188 40.2324 74.9421V74.9485Z" stroke="#636569" stroke-width="2" stroke-linecap="round" stroke-linejoin="round"/>
<path d="M76.1825 24.3901C76.1825 24.3901 79.164 22.9248 79.8138 21.0264" stroke="#636569" stroke-width="2" stroke-linecap="round" stroke-linejoin="round"/>
<path d="M3.588 73.7447C0.810363 69.4127 1.34547 63.2649 2.75977 61.3855C2.60051 61.7232 2.53685 62.2519 2.57508 62.8826C2.70249 65.0232 4.04032 68.3296 7.0919 69.3235C12.902 71.2219 19.4065 66.6286 16.0427 58.1301C15.9854 57.9836 15.2528 56.4864 14.3863 54.0592C10.4875 43.1398 3.89379 13.363 43.8064 2.60922C50.8715 20.976 33.3202 29.1114 28.2873 39.3619C23.8979 48.3001 24.5413 54.4542 26.4143 60.1432C26.9685 61.8315 28.3 65.3672 28.128 67.89C27.663 74.7258 22.1077 80.2046 15.2591 80.3384C10.2709 80.434 5.90057 77.7519 3.588 73.7384" stroke="#636569" stroke-width="2" stroke-linecap="round" stroke-linejoin="round"/>
</svg>
