<svg width="86" height="60" viewBox="0 0 86 60" fill="none" xmlns="http://www.w3.org/2000/svg">
<path d="M80.9844 24.4534C79.2242 24.4534 77.7965 25.8977 77.7965 27.6785C77.7965 27.9449 77.8313 28.1973 77.8936 28.4427C73.9505 30.3427 66.9236 34.346 57.3464 42.2125C57.3464 42.2125 62.322 22.1608 65.3504 15.5143L65.6762 14.2103C65.9257 14.2734 66.1889 14.3154 66.4592 14.3154C68.2194 14.3154 69.6471 12.8711 69.6471 11.0903C69.6471 9.30953 68.2194 7.86524 66.4592 7.86524C64.699 7.86524 63.2714 9.30953 63.2714 11.0903C63.2714 11.8125 63.5071 12.4715 63.9021 13.0114L63.403 13.4741C63.403 13.4741 49.9867 32.2427 47.7484 38.2302L42.7796 8.27187C44.2904 8.01948 45.4406 6.6944 45.4406 5.08887C45.4406 3.30805 44.013 1.86377 42.2528 1.86377C40.4926 1.86377 39.0653 3.30805 39.0653 5.08887C39.0653 6.70842 40.2433 8.04753 41.7818 8.27889L37.3605 38.097C37.3605 38.097 26.9653 21.5579 21.3174 14.5748C21.9481 13.9859 22.3431 13.1446 22.3431 12.2051C22.3431 10.4243 20.9158 8.98 19.1556 8.98C17.3953 8.98 15.9677 10.4243 15.9677 12.2051C15.9677 13.9859 17.3953 15.4302 19.1556 15.4302C19.4466 15.4302 19.7236 15.3881 19.9869 15.318C22.3847 22.4342 27.6309 38.4545 27.6309 42.3597C27.6309 42.3597 16.328 32.2497 7.42303 28.6671C7.52005 28.3586 7.5753 28.0291 7.5753 27.6855C7.5753 25.9047 6.148 24.4604 4.38779 24.4604C2.62759 24.4604 1.19995 25.9047 1.19995 27.6855C1.19995 29.4663 2.62759 30.9106 4.38779 30.9106C5.15009 30.9106 5.84284 30.6442 6.39031 30.1955C11.8511 34.7457 21.8443 44.7575 24.4846 58.8638H59.869C59.869 58.8638 66.8403 35.8324 78.545 30.3778L78.836 30.0413C79.4043 30.5811 80.1667 30.9106 81.0121 30.9106C82.7723 30.9106 84.1999 29.4663 84.1999 27.6855C84.1999 25.9047 82.7723 24.4604 81.0121 24.4604L80.9844 24.4534Z" stroke="#636569" stroke-width="2" stroke-linecap="round" stroke-linejoin="round"/>
</svg>
