<svg width="75" height="61" viewBox="0 0 75 61" fill="none" xmlns="http://www.w3.org/2000/svg">
<path d="M73.2 14.3828H1.20001L7.9188 5.83337L15.8581 1.86377H58.3176L66.4112 5.6791L73.2 14.3828Z" stroke="#636569" stroke-width="2" stroke-linecap="round" stroke-linejoin="round"/>
<path d="M73.2 14.3831L37.3896 59.129L1.20001 14.3831H73.2Z" stroke="#636569" stroke-width="2" stroke-linecap="round" stroke-linejoin="round"/>
<path d="M7.9188 5.83353L15.8581 14.3829H1.20001L7.9188 5.83353Z" stroke="#636569" stroke-width="2" stroke-linecap="round" stroke-linejoin="round"/>
<path d="M26.0906 5.83337L15.8581 1.86377L7.91882 5.83337L15.8581 14.3828L26.0906 5.83337Z" stroke="#636569" stroke-width="2" stroke-linecap="round" stroke-linejoin="round"/>
<path d="M58.3176 1.86377L48.7723 5.83337L58.3176 14.3828L66.4111 5.6791L58.3176 1.86377Z" stroke="#636569" stroke-width="2" stroke-linecap="round" stroke-linejoin="round"/>
<path d="M26.0906 5.83337L37.9994 1.86377H15.858L26.0906 5.83337Z" stroke="#636569" stroke-width="2" stroke-linecap="round" stroke-linejoin="round"/>
<path d="M58.3177 1.86377L48.7724 5.83337L37.9995 1.86377H58.3177Z" stroke="#636569" stroke-width="2" stroke-linecap="round" stroke-linejoin="round"/>
<path d="M37.2002 14.3829L48.7724 5.83353L58.3176 14.3829H37.2002Z" stroke="#636569" stroke-width="2" stroke-linecap="round" stroke-linejoin="round"/>
<path d="M26.0906 5.83353L15.858 14.3829H37.2001L26.0906 5.83353Z" stroke="#636569" stroke-width="2" stroke-linecap="round" stroke-linejoin="round"/>
<path d="M15.858 14.3831L37.3895 59.129L58.3176 14.3831H37.2001H15.858Z" stroke="#636569" stroke-width="2" stroke-linecap="round" stroke-linejoin="round"/>
<path d="M37.2002 14.3831L37.3896 59.129" stroke="#636569" stroke-width="2" stroke-linecap="round" stroke-linejoin="round"/>
</svg>
