<svg width="81" height="81" viewBox="0 0 81 81" fill="none" xmlns="http://www.w3.org/2000/svg">
<path d="M40.5005 15.5767C26.7546 15.5767 15.5777 26.7534 15.5777 40.4997C15.5777 54.2457 26.7546 65.4227 40.5005 65.4227C54.2468 65.4227 65.4237 54.2457 65.4237 40.4997C65.4237 26.7534 54.2468 15.5767 40.5005 15.5767ZM40.5005 18.6921C52.563 18.6921 62.3082 28.4373 62.3082 40.4997C62.3082 52.562 52.563 62.3074 40.5005 62.3074C28.4383 62.3074 18.6931 52.562 18.6931 40.4997C18.6931 28.4373 28.4383 18.6921 40.5005 18.6921Z" fill="#636569"/>
<path d="M40.4634 0.000405405C40.2415 0.00575871 40.0233 0.0586059 39.8234 0.155185C39.6235 0.251765 39.4466 0.390031 39.3044 0.56058L32.2218 9.05789L20.7983 4.77121C20.5625 4.68268 20.3086 4.65266 20.0587 4.68374C19.8087 4.71482 19.5699 4.80599 19.3629 4.94956C19.1559 5.09314 18.9869 5.28496 18.8702 5.50822C18.7536 5.73148 18.6927 5.97962 18.693 6.23154V17.3183L7.59487 18.7056C7.37633 18.733 7.1661 18.8066 6.97803 18.9212C6.78997 19.0359 6.6283 19.1894 6.50381 19.3711C6.37932 19.5528 6.29487 19.7586 6.25585 19.9754C6.21684 20.1922 6.2242 20.415 6.27753 20.6287L9.15541 32.1414L0.561125 39.3035C0.385541 39.4497 0.244129 39.6325 0.147174 39.8394C0.0502198 40.0463 0 40.2722 0 40.5007C0 40.7292 0.0502198 40.9547 0.147174 41.1616C0.244129 41.3685 0.385541 41.5517 0.561125 41.6979L9.15541 48.86L6.27753 60.3726C6.22372 60.5865 6.21593 60.8092 6.25471 61.0263C6.2935 61.2435 6.37794 61.4501 6.50248 61.6322C6.62701 61.8142 6.78877 61.9679 6.97708 62.0828C7.1654 62.1977 7.376 62.271 7.59487 62.2984L18.693 63.6858V74.7729C18.6932 75.0245 18.7545 75.2722 18.8714 75.4951C18.9883 75.7179 19.1573 75.9093 19.3642 76.0526C19.5712 76.1958 19.8097 76.2867 20.0594 76.3176C20.3092 76.3486 20.5627 76.3182 20.7983 76.2298L32.2218 71.9461L39.3044 80.4408C39.4506 80.6158 39.6335 80.7568 39.8401 80.8534C40.0467 80.95 40.2718 81.0002 40.4999 81.0002C40.728 81.0002 40.9533 80.95 41.1599 80.8534C41.3665 80.7568 41.5493 80.6158 41.6956 80.4408L48.7782 71.9461L60.2017 76.2298C60.4372 76.3182 60.6908 76.3486 60.9406 76.3176C61.1903 76.2867 61.4288 76.1958 61.6358 76.0526C61.8427 75.9093 62.0117 75.7179 62.1286 75.4951C62.2455 75.2722 62.3068 75.0245 62.307 74.7729V63.6858L73.4051 62.2984C73.624 62.271 73.8346 62.1977 74.0229 62.0828C74.2112 61.9679 74.373 61.8142 74.4975 61.6322C74.6221 61.4501 74.7065 61.2435 74.7453 61.0263C74.7841 60.8092 74.7763 60.5865 74.7225 60.3726L71.8446 48.86L80.4389 41.6979C80.6145 41.5517 80.7557 41.3685 80.8526 41.1616C80.9496 40.9547 81 40.7292 81 40.5007C81 40.2722 80.9496 40.0463 80.8526 39.8394C80.7557 39.6325 80.6145 39.4497 80.4389 39.3035L71.8446 32.1414L74.7225 20.6287C74.7758 20.415 74.7832 20.1922 74.7441 19.9754C74.7051 19.7586 74.6207 19.5528 74.4962 19.3711C74.3717 19.1894 74.21 19.0359 74.022 18.9212C73.8339 18.8066 73.6237 18.733 73.4051 18.7056L62.307 17.3183V6.23154C62.3073 5.97962 62.2464 5.73148 62.1298 5.50822C62.0131 5.28496 61.8439 5.09314 61.6369 4.94956C61.4299 4.80599 61.1913 4.71482 60.9413 4.68374C60.6914 4.65266 60.4375 4.68268 60.2017 4.77121L48.7782 9.05789L41.6956 0.56058C41.5455 0.380573 41.3569 0.23655 41.1436 0.139593C40.9302 0.042637 40.6977 -0.00494011 40.4634 0.000405405ZM40.4993 3.98932L47.0919 11.8998C47.2987 12.1482 47.5774 12.3262 47.8898 12.4091C48.2022 12.4919 48.5326 12.4756 48.8352 12.3623L59.191 8.47718V18.6934C59.191 19.0729 59.3295 19.4394 59.5804 19.724C59.8314 20.0086 60.1776 20.1919 60.554 20.2393L71.272 21.578L68.5826 32.3331C68.5113 32.6176 68.5217 32.9164 68.6126 33.1952C68.7036 33.474 68.8714 33.7214 69.0968 33.909L77.0067 40.5022L69.0968 47.092C68.8714 47.2796 68.7036 47.5273 68.6126 47.8062C68.5217 48.085 68.5113 48.3838 68.5826 48.6683L71.272 59.4264L60.554 60.7651C60.1776 60.8125 59.8314 60.9958 59.5804 61.2804C59.3295 61.5649 59.1911 61.9312 59.191 62.3106V72.5211L48.8352 68.6391C48.5326 68.5258 48.2022 68.5095 47.8898 68.5923C47.5774 68.6752 47.2987 68.8531 47.0919 69.1015L40.4993 77.0121L33.9069 69.1015C33.7002 68.8531 33.4212 68.6752 33.1089 68.5923C32.7965 68.5095 32.4661 68.5258 32.1635 68.6391L21.8082 72.5211V62.3106C21.8082 61.9312 21.6697 61.5649 21.4188 61.2804C21.1678 60.9958 20.8216 60.8125 20.4452 60.7651L9.72738 59.4264L12.4168 48.6683C12.4881 48.3838 12.4777 48.085 12.3868 47.8062C12.2958 47.5273 12.128 47.2796 11.9027 47.092L3.99272 40.5022L11.9027 33.909C12.128 33.7214 12.2958 33.474 12.3868 33.1952C12.4777 32.9164 12.4881 32.6176 12.4168 32.3331L9.72738 21.578L20.4452 20.2393C20.8217 20.1919 21.1678 20.0086 21.4188 19.724C21.6697 19.4394 21.8082 19.0729 21.8082 18.6934V8.47718L32.164 12.3623C32.4667 12.4756 32.7971 12.4919 33.1094 12.4091C33.4218 12.3262 33.7007 12.1482 33.9075 11.8998L40.4993 3.98932Z" fill="#636569"/>
</svg>
