<svg width="22" height="21" viewBox="0 0 22 21" fill="none" xmlns="http://www.w3.org/2000/svg">
<g clip-path="url(#clip0_0_1158)">
<path d="M5.24514 7.07764H0.734619V20.9693H5.24514V7.07764Z" fill="#636569"/>
<path d="M2.99036 0.13623C1.53589 0.13623 0.585864 1.17874 0.61529 2.56735C0.585864 3.8943 1.53449 4.96764 2.95953 4.96764C4.38457 4.96764 5.39345 3.8943 5.39345 2.56735C5.36402 1.17874 4.44482 0.13623 2.99036 0.13623Z" fill="#636569"/>
<path d="M16.4619 6.75146C14.4974 6.75146 13.148 7.68328 12.3955 8.52541V7.07795H7.88501V20.9696H12.3955V13.2209C12.3955 12.8047 12.4544 12.3605 12.5735 12.0929C12.8705 11.262 13.6118 10.4016 14.8589 10.4016C16.4913 10.4016 17.1443 11.6782 17.1443 13.5474V20.9696H21.6548V12.9841C21.6548 8.71037 19.4297 6.75287 16.4619 6.75287V6.75146Z" fill="#636569"/>
</g>
<defs>
<clipPath id="clip0_0_1158">
<rect width="21.0393" height="20.8333" fill="white" transform="translate(0.615479 0.13623)"/>
</clipPath>
</defs>
</svg>
