<svg width="41" height="19" viewBox="0 0 41 19" fill="none" xmlns="http://www.w3.org/2000/svg">
<path d="M40.5301 15.4373L35.7494 9.49998L40.4363 3.68142C40.6927 3.36311 40.8542 2.97734 40.9019 2.56933C40.9497 2.16132 40.8816 1.74797 40.7058 1.37774C40.5278 0.962769 40.2324 0.610516 39.8571 0.365384C39.4818 0.120253 39.0432 -0.00678546 38.5967 0.000284147H2.27315C1.97924 -0.00443095 1.6873 0.0495766 1.41399 0.159222C1.14068 0.268867 0.891361 0.432001 0.680272 0.639309C0.469183 0.846616 0.300459 1.09403 0.183737 1.36743C0.0670142 1.64083 0.00458011 1.93486 0 2.23271L0 16.7791C0.0123157 17.3786 0.258368 17.9487 0.684347 18.3649C1.11033 18.781 1.68157 19.0092 2.27315 18.9997H38.7256C39.1572 19.007 39.5817 18.889 39.9492 18.6597C40.3167 18.4303 40.6118 18.0992 40.7996 17.7053C40.9682 17.3395 41.0323 16.9332 40.9847 16.5323C40.9371 16.1314 40.7796 15.7521 40.5301 15.4373ZM2.34346 16.6248V2.37521H38.4093L32.7381 9.41686L38.4913 16.6248H2.34346Z" fill="#FFD100"/>
<path d="M11.0025 11.103L7.1827 5.9375H5.85864V13.276H7.1827V8.12243L11.0025 13.276H12.3149V5.9375H11.0025V11.103Z" fill="#FFD100"/>
<path d="M14.2717 13.276H19.732V12.0648H15.5958V10.153H19.3336V8.92991H15.5958V7.16059H19.732V5.9375H14.2717V13.276Z" fill="#FFD100"/>
<path d="M28.7307 11.198L27.02 5.9375H25.5905L23.868 11.198L22.3214 5.9375H20.8801L23.1767 13.276H24.4773L26.3052 7.82557L28.1214 13.276H29.4455L31.7303 5.9375H30.2891L28.7307 11.198Z" fill="#FFD100"/>
</svg>
