<svg width="24" height="25" viewBox="0 0 24 25" fill="none" xmlns="http://www.w3.org/2000/svg">
<g clip-path="url(#clip0_8_27)">
<path d="M22.1053 16.3021C20.6248 16.3021 19.1748 16.071 17.8004 15.6175C17.1297 15.3863 16.368 15.5644 15.9272 16.0141L13.2025 18.0718C10.0762 16.4032 8.07537 14.4036 6.4295 11.3L8.43159 8.6398C8.93559 8.1358 9.11624 7.39809 8.90024 6.70716C8.44295 5.324 8.21055 3.87263 8.21055 2.39474C8.21055 1.35009 7.36047 0.5 6.31581 0.5H1.89474C0.850086 0.5 0 1.35009 0 2.39474C0 14.5829 9.91706 24.5 22.1053 24.5C23.1499 24.5 24 23.6499 24 22.6053V18.1969C24 17.1522 23.1499 16.3021 22.1053 16.3021Z" fill="#636569"/>
</g>
<defs>
<clipPath id="clip0_8_27">
<rect width="24" height="24" fill="white" transform="translate(0 0.5)"/>
</clipPath>
</defs>
</svg>
