<svg width="24" height="25" viewBox="0 0 24 25" fill="none" xmlns="http://www.w3.org/2000/svg">
<g clip-path="url(#clip0_8_41)">
<path d="M23.1472 19.4127L19.197 15.4626C19.9152 14.0262 20.394 12.3504 20.394 10.6746C20.394 5.04863 15.8454 0.5 10.2195 0.5C4.59355 0.5 0.0449219 5.04863 0.0449219 10.6746C0.0449219 16.3005 4.59355 20.8491 10.2195 20.8491C11.8953 20.8491 13.5711 20.3703 15.0075 19.6521L18.9576 23.6022C20.1546 24.7993 21.9502 24.7993 23.1472 23.6022C24.2245 22.4052 24.2245 20.6097 23.1472 19.4127ZM10.2195 18.4551C5.91026 18.4551 2.43894 14.9838 2.43894 10.6746C2.43894 6.36534 5.91026 2.89402 10.2195 2.89402C14.5287 2.89402 18 6.36534 18 10.6746C18 14.9838 14.5287 18.4551 10.2195 18.4551Z" fill="#636569"/>
</g>
<defs>
<clipPath id="clip0_8_41">
<rect width="24" height="24" fill="white" transform="translate(0 0.5)"/>
</clipPath>
</defs>
</svg>
