<svg width="24" height="25" viewBox="0 0 24 25" fill="none" xmlns="http://www.w3.org/2000/svg">
<path d="M18.1883 18.3337C16.6524 18.3337 15.386 19.5732 15.386 21.1361C15.386 22.672 16.6255 23.9384 18.1883 23.9384C19.7242 23.9384 20.9907 22.6989 20.9907 21.1361C20.9637 19.6002 19.7242 18.3337 18.1883 18.3337Z" fill="#636569"/>
<path d="M23.1194 4.96864C23.0655 4.96864 22.9846 4.9417 22.9038 4.9417H5.92804L5.65859 3.13634C5.49691 1.95073 4.47298 1.06152 3.26042 1.06152H1.07783C0.485022 1.06152 0 1.54655 0 2.13935C0 2.73215 0.485022 3.21718 1.07783 3.21718H3.26042C3.39515 3.21718 3.50294 3.32496 3.52988 3.45969L5.20051 14.8308C5.41608 16.2589 6.65558 17.3367 8.11064 17.3367H19.32C20.7212 17.3367 21.9338 16.3397 22.2302 14.9655L23.9816 6.20814C24.0894 5.64228 23.7122 5.07643 23.1194 4.96864Z" fill="#636569"/>
<path d="M11.3172 21.0014C11.2633 19.5193 10.0238 18.3337 8.54179 18.3337C6.97894 18.4146 5.79333 19.708 5.84723 21.2439C5.90112 22.7259 7.11367 23.9115 8.59568 23.9115H8.64957C10.1855 23.8307 11.398 22.5373 11.3172 21.0014Z" fill="#636569"/>
</svg>
