<svg width="24" height="25" viewBox="0 0 24 25" fill="none" xmlns="http://www.w3.org/2000/svg">
<path d="M19.5 12.7084L12 20.1364L4.5 12.7084C4.0053 12.227 3.61564 11.6484 3.35554 11.009C3.09545 10.3697 2.97056 9.68336 2.98873 8.99334C3.00691 8.30332 3.16776 7.62454 3.46115 6.99974C3.75455 6.37494 4.17413 5.81766 4.69348 5.36299C5.21283 4.90831 5.8207 4.5661 6.47881 4.35789C7.13691 4.14968 7.831 4.07999 8.51736 4.15321C9.20373 4.22643 9.8675 4.44096 10.4669 4.78331C11.0662 5.12566 11.5882 5.58841 12 6.14241C12.4135 5.59243 12.9361 5.13373 13.5351 4.79501C14.1341 4.4563 14.7965 4.24486 15.4809 4.17393C16.1654 4.103 16.8571 4.17411 17.5128 4.3828C18.1685 4.59149 18.774 4.93328 19.2915 5.38677C19.8091 5.84026 20.2274 6.39569 20.5204 7.0183C20.8134 7.64091 20.9747 8.31729 20.9943 9.00512C21.0139 9.69294 20.8913 10.3774 20.6341 11.0157C20.377 11.6539 19.9909 12.2322 19.5 12.7144" stroke="#636569" stroke-width="2" stroke-linecap="round" stroke-linejoin="round"/>
</svg>
