<svg width="21" height="24" viewBox="0 0 21 24" fill="none" xmlns="http://www.w3.org/2000/svg">
<g clip-path="url(#clip0_0_1144)">
<path d="M17.8065 5.21475C16.4861 4.39208 15.5351 3.03257 15.2562 1.4416C15.2298 1.28961 15.2088 1.13623 15.1949 0.982853V0.469727H11.1763V16.4213C11.1694 18.2814 9.65926 19.7859 7.79778 19.7859C7.25119 19.7859 6.73527 19.6562 6.27792 19.4261C5.17498 18.8698 4.41923 17.7278 4.41923 16.4101C4.41923 14.5459 5.93212 13.033 7.79778 13.033C8.15474 13.033 8.50054 13.0887 8.82403 13.1905V9.10783C8.48799 9.06181 8.14916 9.03811 7.81033 9.03811C3.73041 9.0395 0.422974 12.3455 0.422974 16.4213C0.422974 18.9771 1.72252 21.2291 3.69695 22.5537C4.8724 23.3429 6.28768 23.8017 7.80893 23.8017C11.8875 23.8017 15.1949 20.497 15.1949 16.4199V8.26981C16.765 9.39088 18.6878 10.0504 20.764 10.0504V6.05695C19.7182 6.05835 18.6948 5.76553 17.8065 5.21336V5.21475Z" fill="#636569"/>
</g>
<defs>
<clipPath id="clip0_0_1144">
<rect width="20.341" height="23.3333" fill="white" transform="translate(0.422974 0.469727)"/>
</clipPath>
</defs>
</svg>
