<svg width="24" height="20" viewBox="0 0 24 20" fill="none" xmlns="http://www.w3.org/2000/svg">
<g clip-path="url(#clip0_0_1148)">
<path d="M23.5703 3.25603C22.7288 3.61397 21.8278 3.85305 20.8823 3.9503C21.8521 3.3884 22.6045 2.48612 22.9692 1.40284C22.0602 1.92557 21.0579 2.29837 19.9935 2.49017C19.1574 1.57304 17.954 0.989524 16.6127 0.969264C14.0396 0.931443 11.9243 2.98724 11.8865 5.56036C11.8811 5.92641 11.9162 6.28165 11.9919 6.62473C8.12206 6.37485 4.71555 4.47033 2.45849 1.61761C2.04787 2.29972 1.8061 3.098 1.79394 3.9503C1.77098 5.56712 2.57195 7.00563 3.81056 7.85929C3.04741 7.82417 2.33153 7.604 1.70884 7.24606C1.70884 7.26497 1.70884 7.28523 1.70749 7.30414C1.67508 9.56255 3.25407 11.4684 5.37875 11.9263C4.98704 12.0276 4.57507 12.0776 4.1496 12.0708C3.84974 12.0668 3.55933 12.033 3.27433 11.9749C3.84028 13.8349 5.54219 15.2072 7.58043 15.2734C5.96767 16.4998 3.94834 17.2157 1.76422 17.1847C1.38872 17.1793 1.01727 17.1509 0.653931 17.1036C2.69622 18.4557 5.13427 19.2621 7.76547 19.2999C16.3358 19.4242 21.1255 12.3937 21.2159 6.23572C21.2187 6.03311 21.216 5.83186 21.2105 5.6333C22.1317 4.98901 22.9327 4.17993 23.5716 3.25468L23.5703 3.25603Z" fill="#636569"/>
</g>
<defs>
<clipPath id="clip0_0_1148">
<rect width="22.9163" height="18.3333" fill="white" transform="translate(0.653931 0.969727)"/>
</clipPath>
</defs>
</svg>
