<svg width="24" height="18" viewBox="0 0 24 18" fill="none" xmlns="http://www.w3.org/2000/svg">
<g clip-path="url(#clip0_0_1152)">
<path d="M23.3021 3.40546C23.0294 2.38093 22.2287 1.57351 21.211 1.30075C19.3655 0.802734 11.9685 0.802734 11.9685 0.802734C11.9685 0.802734 4.57147 0.802734 2.72731 1.30075C1.70956 1.57487 0.907574 2.38093 0.636174 3.40546C0.140869 5.26184 0.140869 9.13607 0.140869 9.13607C0.140869 9.13607 0.140869 13.0103 0.634817 14.8667C0.907574 15.8912 1.7082 16.6973 2.72595 16.9714C4.57147 17.4694 11.9671 17.4694 11.9671 17.4694C11.9671 17.4694 19.3641 17.4694 21.2096 16.9714C22.2274 16.6973 23.0294 15.8912 23.3008 14.8667C23.7947 13.0103 23.7947 9.13607 23.7947 9.13607C23.7947 9.13607 23.7947 5.26184 23.3008 3.40546" fill="#636569"/>
<path d="M9.54895 12.6533L15.7314 9.136L9.54895 5.61865V12.6533Z" fill="white"/>
</g>
<defs>
<clipPath id="clip0_0_1152">
<rect width="23.6552" height="16.6667" fill="white" transform="translate(0.140869 0.802734)"/>
</clipPath>
</defs>
</svg>
